<?xml version="1.0" encoding="utf-8"?>
<!-- Generator: Adobe Illustrator 23.0.1, SVG Export Plug-In . SVG Version: 6.00 Build 0)  -->
<svg version="1.1" id="Layer_1" xmlns="http://www.w3.org/2000/svg" xmlns:xlink="http://www.w3.org/1999/xlink" x="0px" y="0px"
	 viewBox="0 0 940 529" style="enable-background:new 0 0 940 529;" xml:space="preserve">
<style type="text/css">
	.st0{fill:none;}
	.st1{fill:#7FC7AF;}
</style>
<g>
	<rect x="517" y="290" class="st0" width="37" height="30"/>
	<path class="st1" d="M418.96,217.63c0.03-1.2,0.04-2.41,0.04-3.63c0-2.17-1.73-3.94-3.89-4c-2.14-0.06-3.98,1.62-4.1,3.78
		c-0.02,0.36-0.1,1.96-0.07,4.58c-1.69,57.66-36.29,90.37-36.65,90.7c-1.62,1.5-1.72,4.02-0.23,5.65c1.5,1.62,4.03,1.73,5.65,0.23
		c1.27-1.17,25.19-23.67,35.08-64.81c4.32,19.23,13.37,43.19,32.22,64.51c0.79,0.89,1.89,1.35,3,1.35c0.94,0,1.89-0.33,2.65-1
		c1.66-1.46,1.81-3.99,0.35-5.65C421.9,274.17,419.1,230.08,418.96,217.63z"/>
	<path class="st1" d="M467,184c-0.02,0-0.04,0-0.05,0c-2.21,0.03-3.98,1.84-3.95,4.05l2,154c0.03,2.19,1.81,3.95,4,3.95
		c0.02,0,0.04,0,0.05,0c2.21-0.03,3.98-1.84,3.95-4.05l-2-154C470.97,185.76,469.19,184,467,184z"/>
	<path class="st1" d="M538,260c0-2.21-1.79-4-4-4h-32v-42c0-2.21-1.79-4-4-4s-4,1.79-4,4v46c0,2.21,1.79,4,4,4h36
		C536.21,264,538,262.21,538,260z"/>
	<path class="st1" d="M558,282h-45c-2.21,0-4,1.79-4,4v38c0,2.21,1.79,4,4,4h45c2.21,0,4-1.79,4-4v-38
		C562,283.79,560.21,282,558,282z M554,320h-37v-30h37V320z"/>
	<path class="st1" d="M528,241h17v29c0,2.21,1.79,4,4,4s4-1.79,4-4v-62c0-2.21-1.79-4-4-4s-4,1.79-4,4v25h-17c-2.21,0-4,1.79-4,4
		S525.79,241,528,241z"/>
	<path class="st1" d="M564,200c-2.21,0-4,1.79-4,4v68c0,2.21,1.79,4,4,4s4-1.79,4-4v-68C568,201.79,566.21,200,564,200z"/>
</g>
</svg>
