<svg xmlns="http://www.w3.org/2000/svg" viewBox="0 0 1920 1080"><defs><style>.cls-1{fill:#5e5e5e;}.cls-2{fill:#f8b2ca;}</style></defs><title>graphic_design</title><g id="Layer_1" data-name="Layer 1"><path class="cls-1" d="M1012.66,460l-76.52-49.63L646,540.61H914.16A17.6,17.6,0,1,1,915,553H646L936.14,683.31l76.52-49.64h62V460Z"/><rect class="cls-2" x="1089.1" y="459.95" width="81.46" height="173.72"/><rect class="cls-1" x="1184.95" y="459.95" width="298.79" height="173.72"/><path class="cls-1" d="M894,918.49a4.19,4.19,0,0,0-.5,0v0H890c-1.66,0-3.31,0-5,0C691.5,915.89,532.9,761.3,523,570h6.28a4.92,4.92,0,0,0,4.92-4.92V533.92a4.92,4.92,0,0,0-4.92-4.92h-6.11C534.57,339.09,692.51,186.1,885,183.53h0c1.66,0,3.31,0,5,0h3.51a5.5,5.5,0,0,0,0-11H890c-1.68,0-3.36,0-5,0A378.34,378.34,0,0,0,516,492.36V250.66a15.5,15.5,0,1,0-10,0V529h-7.08a4.92,4.92,0,0,0-4.92,4.92v31.16a4.92,4.92,0,0,0,4.92,4.92H506V867.34a15.5,15.5,0,1,0,10,0V609.64A378.24,378.24,0,0,0,885,929.47c1.67,0,3.35,0,5,0h3.5v0l.5,0a5.5,5.5,0,0,0,0-11ZM502.5,236a8.5,8.5,0,1,1,8.5,8.5A8.51,8.51,0,0,1,502.5,236Zm17,646a8.5,8.5,0,1,1-8.5-8.5A8.51,8.51,0,0,1,519.5,882Z"/></g></svg>