<svg xmlns="http://www.w3.org/2000/svg" viewBox="0 0 1920 1080"><defs><style>.cls-1{fill:#f8b2ca;}.cls-2{fill:#5e5e5e;}.cls-3{fill:none;}</style></defs><title>kompentencer-iconer</title><g id="Layer_1" data-name="Layer 1"><path class="cls-1" d="M771,339.35h-51a3,3,0,0,1-3-3v-51a3,3,0,0,1,3-3h51a3,3,0,0,1,3,3v51A3,3,0,0,1,771,339.35Zm-48-6h45v-45h-45Z"/><path class="cls-2" d="M1198.29,325.77h-403a3,3,0,0,1,0-6h403a3,3,0,0,1,0,6Z"/><path class="cls-2" d="M1198.29,301.89h-403a3,3,0,0,1,0-6h403a3,3,0,0,1,0,6Z"/><path class="cls-1" d="M771,467h-51a3,3,0,0,1-3-3v-51a3,3,0,0,1,3-3h51a3,3,0,0,1,3,3v51A3,3,0,0,1,771,467Zm-48-6h45v-45h-45Z"/><path class="cls-2" d="M1198.29,453.38h-403a3,3,0,0,1,0-6h403a3,3,0,0,1,0,6Z"/><path class="cls-2" d="M1198.29,429.51h-403a3,3,0,0,1,0-6h403a3,3,0,0,1,0,6Z"/><path class="cls-1" d="M771,594.58h-51a3,3,0,0,1-3-3v-51a3,3,0,0,1,3-3h51a3,3,0,0,1,3,3v51A3,3,0,0,1,771,594.58Zm-48-6h45v-45h-45Z"/><path class="cls-2" d="M1198.29,581h-403a3,3,0,0,1,0-6h403a3,3,0,0,1,0,6Z"/><path class="cls-2" d="M1198.29,557.12h-403a3,3,0,0,1,0-6h403a3,3,0,0,1,0,6Z"/><path class="cls-1" d="M771,735.77h-51a3,3,0,0,1-3-3v-51a3,3,0,0,1,3-3h51a3,3,0,0,1,3,3v51A3,3,0,0,1,771,735.77Zm-48-6h45v-45h-45Z"/><path class="cls-2" d="M1198.29,722.19h-403a3,3,0,0,1,0-6h403a3,3,0,0,1,0,6Z"/><path class="cls-2" d="M1198.29,698.32h-403a3,3,0,0,1,0-6h403a3,3,0,0,1,0,6Z"/><path class="cls-1" d="M771,863.38h-51a3,3,0,0,1-3-3v-51a3,3,0,0,1,3-3h51a3,3,0,0,1,3,3v51A3,3,0,0,1,771,863.38Zm-48-6h45v-45h-45Z"/><path class="cls-2" d="M1198.29,849.8h-403a3,3,0,0,1,0-6h403a3,3,0,0,1,0,6Z"/><path class="cls-2" d="M1198.29,825.93h-403a3,3,0,0,1,0-6h403a3,3,0,0,1,0,6Z"/><path class="cls-2" d="M745.46,850.8a15.93,15.93,0,1,1,15.93-15.93A16,16,0,0,1,745.46,850.8Zm0-27.86a11.93,11.93,0,1,0,11.93,11.93A11.94,11.94,0,0,0,745.46,822.94Z"/><path class="cls-2" d="M745.46,722.19a15.93,15.93,0,1,1,15.93-15.93A16,16,0,0,1,745.46,722.19Zm0-27.86a11.93,11.93,0,1,0,11.93,11.93A11.94,11.94,0,0,0,745.46,694.33Z"/><path class="cls-2" d="M745.46,582a15.93,15.93,0,1,1,15.93-15.93A16,16,0,0,1,745.46,582Zm0-27.86a11.93,11.93,0,1,0,11.93,11.93A11.94,11.94,0,0,0,745.46,554.13Z"/><path class="cls-2" d="M740.13,456.58a2,2,0,0,1-1.57-.77l-9.81-12.51a2,2,0,0,1,3.15-2.46l8.15,10.39,19.41-27.55a2,2,0,1,1,3.27,2.3l-21,29.75a2,2,0,0,1-1.59.85Z"/><path class="cls-2" d="M740.13,327.71a2,2,0,0,1-1.57-.77l-9.81-12.51A2,2,0,0,1,731.9,312l8.15,10.39,19.41-27.55a2,2,0,0,1,3.27,2.31l-21,29.75a2,2,0,0,1-1.59.84Z"/></g><g id="Layer_2" data-name="Layer 2"><path class="cls-3" d="M829.12,145.37h0a13.18,13.18,0,0,0,13.19,13.19h235.38a13.18,13.18,0,0,0,13.19-13.19h0V120.61c0-.08,0-.16,0-.24a13.18,13.18,0,0,0-13.18-13H842.31a13.18,13.18,0,0,0-13.18,13c0,.08,0,.16,0,.24Z"/><path class="cls-3" d="M1259,145.37H1115.88a38.23,38.23,0,0,1-38.19,38.19H842.31a38.23,38.23,0,0,1-38.19-38.19H661a38,38,0,0,0-38,37.95V927A38,38,0,0,0,661,965h598A38,38,0,0,0,1297,927V183.32A38,38,0,0,0,1259,145.37Z"/><path class="cls-2" d="M1259,120.37H1115.88a38.23,38.23,0,0,0-38.19-37.95H842.31a38.23,38.23,0,0,0-38.19,38H661a63,63,0,0,0-63,62.95V927A63,63,0,0,0,661,990h598A63,63,0,0,0,1322,927V183.32A63,63,0,0,0,1259,120.37Zm-416.69-13h235.38a13.18,13.18,0,0,1,13.18,13c0,.08,0,.16,0,.24v24.76h0a13.18,13.18,0,0,1-13.19,13.19H842.31a13.18,13.18,0,0,1-13.19-13.19h0V120.61c0-.08,0-.16,0-.24A13.18,13.18,0,0,1,842.31,107.42ZM1297,927A38,38,0,0,1,1259,965H661a38,38,0,0,1-38-37.94V183.32a38,38,0,0,1,38-37.95H804.12a38.23,38.23,0,0,0,38.19,38.19h235.38a38.23,38.23,0,0,0,38.19-38.19H1259a38,38,0,0,1,38,37.95Z"/></g></svg>